<svg version="1.0" xmlns="http://www.w3.org/2000/svg"
 width="377.000000pt" height="141.000000pt" viewBox="0 0 377.000000 141.000000"
 preserveAspectRatio="xMidYMid meet">

<g transform="translate(0.000000,141.000000) scale(0.100000,-0.100000)"
fill="#000000" stroke="none">
<path d="M27 1383 c-4 -3 -7 -307 -7 -675 l0 -668 70 0 70 0 0 245 0 245 198
0 197 0 155 -245 155 -245 78 0 c42 0 77 2 77 5 0 2 -70 114 -155 249 -85 134
-155 248 -155 254 0 5 12 13 28 17 40 10 117 61 153 103 78 88 121 242 100
354 -36 190 -174 333 -347 358 -77 11 -607 14 -617 3z m658 -147 c120 -57 193
-202 166 -332 -21 -107 -74 -185 -153 -225 -34 -17 -60 -19 -288 -19 l-250 0
0 300 0 300 238 0 c228 0 239 -1 287 -24z"/>
<path d="M2360 1195 l0 -165 -70 0 -70 0 0 -55 0 -54 68 -3 67 -3 5 -390 5
-390 24 -33 c48 -63 155 -93 255 -72 63 13 146 46 146 59 0 8 -31 101 -33 101
-1 0 -26 -9 -55 -20 -78 -30 -134 -27 -174 9 l-33 29 -3 356 -3 356 116 0 116
0 -3 53 -3 52 -112 3 -113 3 0 164 0 165 -65 0 -65 0 0 -165z"/>
<path d="M1478 1021 c-129 -42 -227 -129 -289 -257 -136 -279 -4 -624 274
-721 233 -82 494 27 601 249 128 267 24 582 -232 705 -72 35 -84 37 -187 40
-87 2 -122 -1 -167 -16z m267 -122 c76 -28 156 -107 198 -196 29 -63 32 -76
32 -173 0 -97 -3 -110 -32 -172 -36 -76 -107 -154 -174 -190 -38 -20 -58 -23
-144 -23 -92 0 -104 2 -154 30 -272 151 -259 583 22 715 78 38 168 41 252 9z"/>
<path d="M3176 1029 c-36 -9 -203 -84 -234 -107 -11 -7 -9 -19 12 -60 l26 -51
57 35 c98 59 158 77 258 78 76 1 97 -3 135 -22 99 -52 132 -107 138 -233 l4
-87 -53 14 c-271 71 -518 14 -614 -141 -27 -44 -30 -56 -30 -134 0 -78 3 -91
31 -141 36 -64 107 -123 178 -146 140 -47 358 7 472 117 l31 30 6 -48 c4 -37
12 -54 37 -76 27 -24 39 -28 78 -25 l47 3 3 53 c3 47 1 54 -18 59 -11 3 -22
15 -25 27 -2 11 -6 147 -8 301 -2 275 -3 281 -28 342 -64 153 -184 224 -372
222 -51 -1 -110 -5 -131 -10z m329 -526 l60 -19 3 -83 c3 -74 0 -88 -22 -126
-46 -78 -157 -139 -275 -152 -189 -19 -331 148 -247 292 27 46 98 90 168 105
65 14 244 4 313 -17z"/>
</g>
</svg>
